<?xml version="1.0" encoding="UTF-8"?>
<svg version="1.1" xmlns="http://www.w3.org/2000/svg" width="813" height="227">
<path d="M0 0 C268.29 0 536.58 0 813 0 C813 74.91 813 149.82 813 227 C544.71 227 276.42 227 0 227 C0 152.09 0 77.18 0 0 Z " fill="#FCF9F5" transform="translate(0,0)"/>
<path d="M0 0 C5.71685334 9.44523595 4.39312471 21.37543761 1.89746094 31.67773438 C-0.27010785 39.87068668 -2.95893852 47.69251361 -6.5625 55.375 C-5.5725 55.705 -4.5825 56.035 -3.5625 56.375 C-1.96442144 58.34547485 -0.47484813 60.31631583 1 62.375 C6.16781073 69.35015348 11.98187242 75.30457469 19.1640625 80.25390625 C22.02033644 82.91878039 22.15354104 84.41455292 22.5 88.25 C23.00360029 92.37353902 23.24173944 94.09767255 25.6875 97.5625 C27.57792415 100.60068167 27.70372758 101.04274749 27.125 104.375 C24.18986262 114.66545188 18.89620575 126.44825419 9.34375 131.92578125 C4.95269912 134.20581988 0.44031363 136.20673948 -4.07788086 138.21948242 C-13.73361413 142.56436493 -21.66620321 146.22283563 -27.5625 155.375 C-27.5625 151.73794479 -26.73800672 150.84564048 -24.5625 148 C-24.005625 147.24976563 -23.44875 146.49953125 -22.875 145.7265625 C-19.80978963 142.60957493 -16.32915999 140.5543145 -12.5625 138.375 C-17.49065546 136.9457779 -22.4202716 135.52175369 -27.35131836 134.10253906 C-29.02881443 133.61894244 -30.70590144 133.13392452 -32.38256836 132.64746094 C-34.79174532 131.94873545 -37.20234404 131.25512376 -39.61328125 130.5625 C-40.36337967 130.34376221 -41.11347809 130.12502441 -41.88630676 129.8996582 C-44.87443283 129.04563173 -47.43780047 128.375 -50.5625 128.375 C-51.70268539 139.5643484 -51.70268539 139.5643484 -46.625 149.1875 C-45.28572913 150.59763176 -43.93475359 151.99694407 -42.5625 153.375 C-40.83712111 156.82575778 -41.06654907 160.6017517 -41.5625 164.375 C-43.375 166.9375 -43.375 166.9375 -45.5625 168.375 C-46.5525 168.375 -47.5425 168.375 -48.5625 168.375 C-48.8925 170.025 -49.2225 171.675 -49.5625 173.375 C-61.12975216 177.23075072 -75.48208859 174.50988523 -86.5625 170.375 C-87.57828125 170.00117188 -88.5940625 169.62734375 -89.640625 169.2421875 C-91.74385558 168.44422816 -93.84144946 167.63127703 -95.93359375 166.8046875 C-100.37701753 165.05410289 -104.83924117 163.36013252 -109.3125 161.6875 C-110.09262451 161.38996826 -110.87274902 161.09243652 -111.67651367 160.78588867 C-112.43810791 160.50205322 -113.19970215 160.21821777 -113.984375 159.92578125 C-114.65049805 159.67481689 -115.31662109 159.42385254 -116.00292969 159.1652832 C-123.23369762 156.93273877 -130.0753126 156.06097008 -137.62890625 155.9609375 C-138.54840561 155.94157135 -139.46790497 155.9222052 -140.41526794 155.9022522 C-143.31842107 155.8430316 -146.2216151 155.79630367 -149.125 155.75 C-151.10743805 155.71176715 -153.08986043 155.67271243 -155.07226562 155.6328125 C-159.90221472 155.53737822 -164.73224139 155.45313794 -169.5625 155.375 C-169.65756836 154.50109619 -169.75263672 153.62719238 -169.85058594 152.72680664 C-170.85270878 143.92005848 -170.85270878 143.92005848 -175.8125 136.8125 C-176.61042969 136.01972656 -177.40835938 135.22695312 -178.23046875 134.41015625 C-180.90478942 132.07628511 -183.47320612 130.1176786 -186.5625 128.375 C-185.00049823 125.099835 -183.20153109 121.98389751 -181.3894043 118.84375 C-174.60476367 107.02472135 -170.60554691 95.63783718 -167.5625 82.375 C-167.33304688 81.38371094 -167.10359375 80.39242187 -166.8671875 79.37109375 C-165.45745595 72.8684588 -164.97567549 66.9206511 -166.5625 60.375 C-167.2225 60.375 -167.8825 60.375 -168.5625 60.375 C-178.50835182 38.61643744 -178.50835182 38.61643744 -177.5625 29.375 C-171.41609824 23.22859824 -165.96496626 21.96905512 -157.30517578 21.92797852 C-152.12954834 22.05367413 -148.68219936 23.23039262 -144.4921875 26.18359375 C-141.21241001 28.20855759 -138.52906169 28.57231237 -134.75439453 27.80175781 C-133.74489746 27.48045898 -132.73540039 27.15916016 -131.6953125 26.828125 C-130.56907471 26.47886963 -129.44283691 26.12961426 -128.2824707 25.76977539 C-126.50296021 25.20311157 -126.50296021 25.20311157 -124.6875 24.625 C-115.0357911 21.65440495 -105.56443704 18.8934873 -95.5625 17.375 C-94.42039062 17.19195312 -93.27828125 17.00890625 -92.1015625 16.8203125 C-85.64222084 16.04279203 -79.12107307 16.17967678 -72.625 16.1875 C-71.93773834 16.18710724 -71.25047668 16.18671448 -70.54238892 16.18630981 C-43.90335074 16.20457463 -43.90335074 16.20457463 -37.5625 19.375 C-37.3046875 18.64152344 -37.046875 17.90804687 -36.78125 17.15234375 C-33.12131269 8.81190969 -25.60023576 3.20249322 -17.5625 -0.625 C-12.10842406 -2.40302876 -4.92769279 -3.12487835 0 0 Z " fill="#355777" transform="translate(191.5625,26.625)"/>
<path d="M0 0 C1.05960938 -0.01224609 2.11921875 -0.02449219 3.2109375 -0.03710938 C16.19650605 -0.06127607 28.86409181 3.77999544 38.625 12.75 C47.32422558 22.45729035 51.67082968 33.59765166 54.25 46.1875 C54.44207031 47.12207031 54.63414062 48.05664062 54.83203125 49.01953125 C57.65661525 70.42829409 55.1980578 92.97931929 42.3828125 110.78125 C40.75879178 112.71563912 39.09495059 114.46525396 37.25 116.1875 C36.75886719 116.66316406 36.26773438 117.13882813 35.76171875 117.62890625 C25.58912714 126.81440002 11.26894084 129.54668493 -1.99609375 129.39453125 C-16.07268999 128.61819452 -29.08098195 123.2028283 -38.75 112.76953125 C-44.6167935 105.19540918 -48.71934482 96.53995414 -50.75 87.1875 C-50.95367188 86.26195313 -51.15734375 85.33640625 -51.3671875 84.3828125 C-55.46041576 62.34666584 -53.58891171 37.5065852 -40.67578125 18.6484375 C-30.32320224 5.41897548 -16.3476198 0.00980073 0 0 Z " fill="#355677" transform="translate(741.75,21.8125)"/>
<path d="M0 0 C7.04659257 0.04305454 11.68289929 1.00381386 17.08203125 5.76171875 C18.4375 7.3125 18.4375 7.3125 19.4375 10.3125 C22.49625305 8.85661754 25.27916004 7.14556922 28.125 5.3125 C36.3592559 0.3888002 44.00723425 -0.64499456 53.4375 1.3125 C58.83267188 3.269771 62.07859167 6.83395556 65.4375 11.3125 C69.76022323 9.28305248 73.61699763 6.6072565 77.5859375 3.96875 C84.61276578 -0.11258588 91.47018921 -0.57691777 99.4375 0.3125 C106.03254348 2.25221867 110.34391305 5.57826498 114.28125 11.15234375 C116.71852293 15.70576243 117.68614255 19.944635 117.70874023 25.08325195 C117.72402016 26.75077263 117.72402016 26.75077263 117.73960876 28.45198059 C117.74174881 29.63958481 117.74388885 30.82718903 117.74609375 32.05078125 C117.77125483 34.58789291 117.79665284 37.12500223 117.82226562 39.66210938 C117.85098155 43.64478678 117.87501118 47.6273706 117.89379883 51.61010742 C117.91552431 55.46554486 117.95496997 59.32050892 117.99609375 63.17578125 C117.99626747 64.94807854 117.99626747 64.94807854 117.9964447 66.75617981 C118.0684515 72.80842052 118.50489584 77.81514001 120.89442444 83.41496277 C121.57076401 85.77813212 121.33277613 87.03974976 120.4375 89.3125 C113.80145248 94.15502116 106.38725284 93.99475491 98.4375 93.3125 C93.98948251 91.47194104 92.86145352 90.2072798 90.81005859 85.87768555 C88.92241811 80.55780052 89.05145922 75.35756641 89.1015625 69.76953125 C89.08905962 67.53971058 89.07602295 65.30989284 89.0625 63.08007812 C89.05855926 59.59079697 89.06259674 56.10180309 89.07714844 52.61254883 C89.08570455 49.22694133 89.06407306 45.84253302 89.0390625 42.45703125 C89.05240631 41.41424515 89.06575012 40.37145905 89.07949829 39.29707336 C89.03222101 33.2720582 89.03222101 33.2720582 86.02880859 28.14160156 C83.66965034 26.21349547 83.66965034 26.21349547 81.375 25.90234375 C80.4159375 26.07443359 80.4159375 26.07443359 79.4375 26.25 C78.798125 26.34152344 78.15875 26.43304688 77.5 26.52734375 C74.54949333 27.65054799 72.70993964 29.11826967 70.4375 31.3125 C69.68027839 34.16034778 69.68027839 34.16034778 69.77807617 37.36621094 C69.74861153 39.19765656 69.74861153 39.19765656 69.71855164 41.06610107 C69.72248428 42.37975647 69.72641693 43.69341187 69.73046875 45.046875 C69.71734987 46.4088156 69.70204504 47.77073675 69.68464661 49.13262939 C69.64480419 52.71000434 69.63460683 56.28687027 69.63061523 59.86444092 C69.6212821 63.5178572 69.58386763 67.17097458 69.54882812 70.82421875 C69.48426044 77.9869817 69.45101395 85.14943947 69.4375 92.3125 C66.33985347 93.34504884 64.17601213 93.44158904 60.9296875 93.4453125 C59.86105469 93.44660156 58.79242187 93.44789063 57.69140625 93.44921875 C56.57636719 93.44535156 55.46132813 93.44148438 54.3125 93.4375 C53.18972656 93.44136719 52.06695313 93.44523437 50.91015625 93.44921875 C49.31107422 93.44728516 49.31107422 93.44728516 47.6796875 93.4453125 C46.6985498 93.44418457 45.71741211 93.44305664 44.70654297 93.44189453 C42.4375 93.3125 42.4375 93.3125 41.4375 92.3125 C41.32985951 90.50349485 41.29123789 88.6903424 41.27978516 86.87817383 C41.26952301 85.71639114 41.25926086 84.55460846 41.24868774 83.35762024 C41.24138641 82.09105087 41.23408508 80.82448151 41.2265625 79.51953125 C41.20568103 77.54244716 41.18478214 75.56536307 41.16286278 73.58829021 C41.1096441 68.69817229 41.06557372 63.80804424 41.03613281 58.91772461 C41.01920588 56.18000725 40.99448014 53.44257006 40.96127319 50.70500183 C40.93031283 48.12415429 40.91088744 45.54313701 40.90420532 42.96211243 C40.88763885 41.78456894 40.87107239 40.60702545 40.85400391 39.39379883 C40.84591705 38.36201004 40.8378302 37.33022125 40.82949829 36.26716614 C40.36966957 32.80123173 39.14204684 30.3422624 37.4375 27.3125 C36.06436409 27.20264913 34.68855487 27.12608009 33.3125 27.0625 C32.54679687 27.01609375 31.78109375 26.9696875 30.9921875 26.921875 C27.29846952 27.48666368 24.70344072 28.30852522 22.4375 31.3125 C21.49179338 35.87062308 21.60068498 40.40592548 21.6328125 45.046875 C21.62155968 46.40881701 21.60767784 47.77073963 21.59127808 49.13262939 C21.5552449 52.71013816 21.55486544 56.28679233 21.56195068 59.86444092 C21.56286371 63.51785565 21.53000371 67.17095025 21.5 70.82421875 C21.44614289 77.98709253 21.42995507 85.14939979 21.4375 92.3125 C18.27971554 93.36509482 16.02555121 93.44166606 12.7109375 93.4453125 C11.5971875 93.44660156 10.4834375 93.44789063 9.3359375 93.44921875 C8.17320312 93.44535156 7.01046875 93.44148438 5.8125 93.4375 C4.64203125 93.44136719 3.4715625 93.44523437 2.265625 93.44921875 C1.15445312 93.44792969 0.04328125 93.44664062 -1.1015625 93.4453125 C-2.12459473 93.44418457 -3.14762695 93.44305664 -4.20166016 93.44189453 C-6.5625 93.3125 -6.5625 93.3125 -7.5625 92.3125 C-7.66303508 89.4874667 -7.69865716 86.68684715 -7.69189453 83.86132812 C-7.69364685 82.97521347 -7.69539917 82.08909882 -7.69720459 81.1761322 C-7.7016244 78.23198518 -7.69868467 75.28789769 -7.6953125 72.34375 C-7.6959855 70.30733224 -7.6969555 68.27091456 -7.69821167 66.23449707 C-7.69968882 61.96052284 -7.69753355 57.68656947 -7.69287109 53.41259766 C-7.6871738 47.92091461 -7.69045271 42.42928043 -7.69644356 36.93759918 C-7.70004872 32.73072946 -7.69891079 28.52387141 -7.69631577 24.31700134 C-7.69564637 22.29149876 -7.69647535 20.26599514 -7.69879532 18.24049377 C-7.7013211 15.4148577 -7.6974823 12.58930193 -7.69189453 9.76367188 C-7.69391876 8.91792099 -7.69594299 8.0721701 -7.69802856 7.20079041 C-7.67154982 0.0114816 -7.08249451 0.14270137 0 0 Z " fill="#355777" transform="translate(465.5625,55.6875)"/>
<path d="M0 0 C29.7 0 59.4 0 90 0 C91.55799897 3.11599794 91.30803114 6.39404401 91.375 9.8125 C91.43107422 10.88081055 91.43107422 10.88081055 91.48828125 11.97070312 C91.55520969 15.99012807 91.18675003 17.76422027 88.6640625 20.94921875 C79.82831721 27.75092883 71.93280342 24 59 24 C59 57 59 90 59 124 C55.64068168 124.83982958 53.26191393 125.12850056 49.8671875 125.1328125 C48.41119141 125.13474609 48.41119141 125.13474609 46.92578125 125.13671875 C45.91902344 125.13285156 44.91226563 125.12898438 43.875 125.125 C42.86050781 125.12886719 41.84601562 125.13273437 40.80078125 125.13671875 C39.83269531 125.13542969 38.86460937 125.13414062 37.8671875 125.1328125 C36.98144043 125.13168457 36.09569336 125.13055664 35.18310547 125.12939453 C33 125 33 125 31 124 C31 91 31 58 31 24 C20.77 24 10.54 24 0 24 C-1.00615756 19.97536974 -1.13319658 16.69767664 -1.125 12.5625 C-1.12757813 11.26441406 -1.13015625 9.96632813 -1.1328125 8.62890625 C-1 5 -1 5 0 0 Z " fill="#345676" transform="translate(595,24)"/>
<path d="M0 0 C0.9075 0.45375 1.815 0.9075 2.75 1.375 C3.30797683 8.07072197 2.36897757 12.67765378 -1.25 18.375 C-1.745 18.87 -1.745 18.87 -2.25 19.375 C-3.61132705 19.35518936 -4.97180787 19.26679129 -6.328125 19.1484375 C-7.57529297 19.055625 -7.57529297 19.055625 -8.84765625 18.9609375 C-10.60099912 18.82149639 -12.35366327 18.6732087 -14.10546875 18.515625 C-17.93957066 18.24387047 -20.61433107 18.12705584 -24.234375 19.5390625 C-27.68797774 22.68478593 -28.19217181 25.32368356 -28.4453125 29.92578125 C-28.42210937 31.16714844 -28.39890625 32.40851562 -28.375 33.6875 C-28.33375 35.894375 -28.2925 38.10125 -28.25 40.375 C-20.33 40.375 -12.41 40.375 -4.25 40.375 C-2.77100499 43.33299003 -3.11821126 46.0233576 -3.125 49.3125 C-3.12113281 51.18228516 -3.12113281 51.18228516 -3.1171875 53.08984375 C-3.25 56.375 -3.25 56.375 -4.25 59.375 C-11.51 59.375 -18.77 59.375 -26.25 59.375 C-26.25 82.805 -26.25 106.235 -26.25 130.375 C-29.9107135 131.1071427 -32.66302273 131.50297474 -36.296875 131.5078125 C-37.68712891 131.50974609 -37.68712891 131.50974609 -39.10546875 131.51171875 C-40.06066406 131.50785156 -41.01585937 131.50398437 -42 131.5 C-43.45599609 131.50580078 -43.45599609 131.50580078 -44.94140625 131.51171875 C-45.86308594 131.51042969 -46.78476562 131.50914062 -47.734375 131.5078125 C-48.57709961 131.50668457 -49.41982422 131.50555664 -50.28808594 131.50439453 C-52.25 131.375 -52.25 131.375 -53.25 130.375 C-53.34432985 128.16632169 -53.36742431 125.95458479 -53.36352539 123.74389648 C-53.36367142 123.05124695 -53.36381744 122.35859741 -53.3639679 121.6449585 C-53.36326874 119.34530554 -53.35547628 117.04573263 -53.34765625 114.74609375 C-53.34579208 113.15568588 -53.34436817 111.56527743 -53.34336853 109.97486877 C-53.33954329 105.7810407 -53.32971295 101.58724705 -53.31866455 97.39343262 C-53.30845057 93.11711086 -53.30387094 88.84078356 -53.29882812 84.56445312 C-53.28809068 76.16795116 -53.27049384 67.77148382 -53.25 59.375 C-58.53 59.375 -63.81 59.375 -69.25 59.375 C-70.42245774 55.85762679 -70.38266285 53.0174868 -70.375 49.3125 C-70.37757813 48.06339844 -70.38015625 46.81429687 -70.3828125 45.52734375 C-70.25 42.375 -70.25 42.375 -69.25 40.375 C-64.63 40.375 -60.01 40.375 -55.25 40.375 C-55.58 39.715 -55.91 39.055 -56.25 38.375 C-57.155243 26.81375368 -56.80666285 16.56667239 -49.41796875 7.00390625 C-37.07776041 -6.26120922 -16.11905062 -6.78866204 0 0 Z " fill="#345676" transform="translate(332.25,17.625)"/>
<path d="M0 0 C0.80373047 -0.02900391 1.60746094 -0.05800781 2.43554688 -0.08789062 C7.88371691 -0.14580249 11.06853564 0.57755685 15.3125 4.3125 C18.98604525 8.90679166 18.73599664 13.19284471 18.69726562 18.81274414 C18.7026384 19.76289902 18.70801117 20.71305389 18.71354675 21.69200134 C18.72331517 23.75067679 18.72627174 25.80939336 18.72319031 27.86808968 C18.71871204 31.12526744 18.73271219 34.38190202 18.75158691 37.63902283 C18.79461109 45.72605692 18.80562833 53.81307904 18.81781006 61.90020752 C18.82932723 68.73820443 18.85285404 75.57595356 18.89250183 82.41384697 C18.90609959 85.62464082 18.90189659 88.83510221 18.89709473 92.0459137 C18.90643293 94.01116361 18.91660114 95.97640982 18.92773438 97.94165039 C18.92158615 98.83578644 18.91543793 99.72992249 18.90910339 100.65115356 C18.94904222 105.45535138 18.94904222 105.45535138 20.69519043 109.86009216 C22.80287379 111.75287502 24.19723583 111.90002092 27 112.0625 C28.21236328 112.14757812 28.21236328 112.14757812 29.44921875 112.234375 C30.06410156 112.26015625 30.67898438 112.2859375 31.3125 112.3125 C33.4228435 116.59134606 33.55378739 120.45114142 33.4375 125.125 C33.42847656 125.81787109 33.41945313 126.51074219 33.41015625 127.22460938 C33.38676157 128.92072395 33.35089641 130.61665871 33.3125 132.3125 C23.24291943 135.08349023 10.42388632 136.61530289 0.5625 132.4375 C-5.11474222 129.06210386 -7.42292318 123.60864309 -9.23205376 117.46248913 C-9.73540307 115.08636776 -9.81338787 112.93915576 -9.81448364 110.5103302 C-9.81730347 109.54706314 -9.82012329 108.58379608 -9.82302856 107.59133911 C-9.82100433 106.54130707 -9.8189801 105.49127502 -9.81689453 104.40942383 C-9.81952301 102.74309654 -9.81952301 102.74309654 -9.82220459 101.04310608 C-9.82660869 97.36856528 -9.82369075 93.69407254 -9.8203125 90.01953125 C-9.82098581 87.47173554 -9.82195606 84.9239399 -9.82321167 82.37614441 C-9.82468657 77.03729583 -9.82263533 71.69846453 -9.81787109 66.35961914 C-9.81242078 60.18043532 -9.81419809 54.00128445 -9.8196975 47.82210141 C-9.82477351 41.88152211 -9.82424775 35.94095309 -9.82131577 30.00037193 C-9.82064645 27.46968265 -9.82147509 24.93899253 -9.82379532 22.40830421 C-9.82631983 18.88131059 -9.82248449 15.35438137 -9.81689453 11.82739258 C-9.81891876 10.77128784 -9.82094299 9.71518311 -9.82302856 8.6270752 C-9.82020874 7.67226761 -9.81738892 6.71746002 -9.81448364 5.73371887 C-9.81410662 4.89916074 -9.81372959 4.0646026 -9.81334114 3.20475483 C-9.49422626 -1.59372897 -3.67209002 0.0431334 0 0 Z " fill="#375878" transform="translate(410.6875,14.6875)"/>
<path d="M0 0 C2.78751399 12.32466875 4.175682 23.37041637 4 36 C3.39671875 35.65066406 2.7934375 35.30132812 2.171875 34.94140625 C1.37265625 34.48636719 0.5734375 34.03132813 -0.25 33.5625 C-1.43335937 32.88380859 -1.43335937 32.88380859 -2.640625 32.19140625 C-9.9244472 28.51331723 -18.06864331 29.1855113 -25.67578125 31.58862305 C-31.36980024 33.52062423 -36.94323037 35.68883292 -42.36328125 38.30078125 C-44 39 -44 39 -46 39 C-46 39.66 -46 40.32 -46 41 C-47.134375 41.495 -48.26875 41.99 -49.4375 42.5 C-56.37308464 45.97395181 -63.78379474 51.83663374 -67 59 C-67 67.43312219 -64.11045652 75.89857015 -62 84 C-69.26 84 -76.52 84 -84 84 C-84.66 80.7 -85.32 77.4 -86 74 C-89.3235278 67.54844604 -93.71743933 62.92864221 -99 58 C-97.61272336 54.99597239 -96.2136012 51.99760162 -94.8125 49 C-94.42513672 48.16082031 -94.03777344 47.32164062 -93.63867188 46.45703125 C-86.52540441 31.28989896 -86.52540441 31.28989896 -79.125 26.75 C-78.54202148 26.39139893 -77.95904297 26.03279785 -77.35839844 25.66333008 C-61.12883489 15.90710257 -44.55401706 6.96606875 -25.875 3.3125 C-24.32619141 2.99442383 -24.32619141 2.99442383 -22.74609375 2.66992188 C-15.1602353 1.13825491 -7.77260021 -0.19431501 0 0 Z " fill="#FBF8F4" transform="translate(110,95)"/>
<path d="M0 0 C6.75992266 3.72057759 10.13236039 10.10985409 12.61328125 17.1875 C16.87501717 33.60013878 17.58314491 58.37968911 8.8828125 73.5546875 C5.59991881 77.7811674 1.68569535 81.53185155 -3.421875 83.234375 C-11.12534297 83.8693906 -17.21083328 84.12391848 -23.421875 79.234375 C-30.32029878 72.73014687 -32.14541869 61.96874903 -32.58300781 52.89208984 C-32.62882811 49.13109628 -32.65711053 45.37062375 -32.671875 41.609375 C-32.6925 40.31902344 -32.713125 39.02867188 -32.734375 37.69921875 C-32.78012304 26.34226839 -32.05199696 14.27510775 -24.421875 5.234375 C-17.79137479 -1.42952824 -9.00421601 -2.84649409 0 0 Z " fill="#FCF9F5" transform="translate(752.421875,44.765625)"/>
<path d="M0 0 C1.12083984 -0.02900391 2.24167969 -0.05800781 3.39648438 -0.08789062 C11.11601372 -0.14681833 17.0769514 0.57489881 22.77734375 6.09375 C23.32068359 6.94453125 23.32068359 6.94453125 23.875 7.8125 C24.25527344 8.3796875 24.63554687 8.946875 25.02734375 9.53125 C27.19854214 13.7804623 27.07517957 18.0653725 27.05102539 22.74316406 C27.05117142 23.48501953 27.05131744 24.226875 27.0514679 24.99121094 C27.05077269 27.43687897 27.04299866 29.88247031 27.03515625 32.328125 C27.03329068 34.02634642 27.03186743 35.72456838 27.03086853 37.42279053 C27.02705432 41.88783255 27.01723339 46.35284194 27.00616455 50.81787109 C26.99592687 55.37597207 26.99136586 59.93407833 26.98632812 64.4921875 C26.97561014 73.43230599 26.95854687 82.37240028 26.9375 91.3125 C24.28921821 92.6366409 22.27069888 92.44207042 19.30859375 92.4453125 C17.63313477 92.44724609 17.63313477 92.44724609 15.92382812 92.44921875 C14.75271484 92.44535156 13.58160156 92.44148438 12.375 92.4375 C11.20001953 92.44136719 10.02503906 92.44523437 8.81445312 92.44921875 C7.69876953 92.44792969 6.58308594 92.44664062 5.43359375 92.4453125 C4.40419678 92.44418457 3.3747998 92.44305664 2.31420898 92.44189453 C-0.0625 92.3125 -0.0625 92.3125 -1.0625 91.3125 C-1.17562262 89.37581028 -1.21933793 87.43503558 -1.23608398 85.49511719 C-1.24957382 84.2500238 -1.26306366 83.00493042 -1.27696228 81.72210693 C-1.2845522 80.71732929 -1.2845522 80.71732929 -1.29229546 79.69225311 C-1.30867648 77.59880174 -1.33191546 75.50553209 -1.35719299 73.41217041 C-1.42803003 67.45862875 -1.48796319 61.50501045 -1.53930664 55.55126953 C-1.57116875 51.91252758 -1.61246948 48.27399005 -1.65950203 44.63541412 C-1.67548741 43.24962306 -1.68782495 41.86378483 -1.69640923 40.47792816 C-1.70861585 38.53436356 -1.73380585 36.59089374 -1.75952148 34.64746094 C-1.76982895 33.54239197 -1.78013641 32.437323 -1.79075623 31.29876709 C-2.06968972 28.23349023 -2.66049587 26.04487399 -4.0625 23.3125 C-6.20848502 22.07615342 -6.20848502 22.07615342 -8.6875 21.5 C-9.50476563 21.26667969 -10.32203125 21.03335938 -11.1640625 20.79296875 C-12.10378906 20.55513672 -12.10378906 20.55513672 -13.0625 20.3125 C-13.09138514 17.16668577 -13.10925923 14.02090531 -13.125 10.875 C-13.13337891 9.97716797 -13.14175781 9.07933594 -13.15039062 8.15429688 C-13.15361328 7.30029297 -13.15683594 6.44628906 -13.16015625 5.56640625 C-13.16801147 4.38026733 -13.16801147 4.38026733 -13.17602539 3.17016602 C-12.86033414 -1.99562907 -3.8261995 0.03222515 0 0 Z " fill="#345676" transform="translate(353.0625,56.6875)"/>
<path d="M0 0 C8.91259002 3.38021831 17.31134205 7.6943795 24.921875 13.45703125 C27.01124296 15.10870987 27.01124296 15.10870987 29.6875 16.30078125 C32 18 32 18 32.890625 20.9609375 C33.00921875 22.08757812 33.1278125 23.21421875 33.25 24.375 C33.37890625 25.49648437 33.5078125 26.61796875 33.640625 27.7734375 C33.75921875 28.83820313 33.8778125 29.90296875 34 31 C34.31350068 32.67051076 34.6391973 34.33906343 35 36 C35.66 36 36.32 36 37 36 C36.42770367 41.19228855 33.9017839 45.3103703 31.4375 49.8125 C30.80038086 50.99489258 30.80038086 50.99489258 30.15039062 52.20117188 C29.10603446 54.1373378 28.0557923 56.07005367 27 58 C26.67 58 26.34 58 26 58 C25.84144531 57.03320312 25.68289062 56.06640625 25.51953125 55.0703125 C23.93996101 46.03140207 22.21686152 37.44479998 15.6875 30.5625 C9.20535947 26.79381365 3.37335014 25.52445703 -4 25.3125 C-4.82016602 25.28051514 -5.64033203 25.24853027 -6.48535156 25.21557617 C-8.99007092 25.12591476 -11.49440107 25.05960981 -14 25 C-15.14952148 24.96712891 -15.14952148 24.96712891 -16.32226562 24.93359375 C-28.82013831 24.24373738 -28.82013831 24.24373738 -39.8125 29.3125 C-41.88645086 31.86049677 -43.02166845 33.88712688 -44 37 C-47.11179428 35.44410286 -47.73312256 32.38875437 -49 29.3125 C-49.26039062 28.69955078 -49.52078125 28.08660156 -49.7890625 27.45507812 C-52.44847309 21.12218876 -54.26629125 16.04827124 -54.125 9.125 C-54.10695313 7.97257812 -54.08890625 6.82015625 -54.0703125 5.6328125 C-54.04710938 4.76398438 -54.02390625 3.89515625 -54 3 C-49.47838972 1.37811805 -44.96261478 0.31243536 -40.25 -0.5625 C-26.34875157 -3.16398123 -14.02173652 -4.56070323 0 0 Z " fill="#FAF6F3" transform="translate(177,92)"/>
<path d="M0 0 C3.08562461 2.87733284 4.61124288 6.01153878 6.1875 9.875 C6.45796143 10.53612793 6.72842285 11.19725586 7.00708008 11.87841797 C9.10599626 17.41860353 9.43838062 22.26714249 8.91796875 28.1953125 C9.01824154 31.62368711 9.96863463 33.2754673 12 36 C16.05173285 38.31527592 20.42984293 38.53523826 25 39 C25 39.33 25 39.66 25 40 C4.86926718 41.26035892 -12.67888552 33.39521401 -31 26 C-31 25.01 -31 24.02 -31 23 C-29.05504721 21.40335096 -27.1485176 20.01623781 -25.0625 18.625 C-23.78841125 17.74762148 -22.5163721 16.86726125 -21.24609375 15.984375 C-20.56401855 15.51064453 -19.88194336 15.03691406 -19.17919922 14.54882812 C-15.25211955 11.75772422 -11.44201821 8.81389831 -7.625 5.875 C-6.86968994 5.29443848 -6.11437988 4.71387695 -5.33618164 4.11572266 C-3.55598326 2.74570539 -1.77719679 1.37390733 0 0 Z " fill="#F9F6F2" transform="translate(112,160)"/>
<path d="M0 0 C8.3259532 0.93542308 16.53771928 3.71076023 24.5625 6 C25.85737747 6.35953496 27.15229908 6.71891098 28.44726562 7.078125 C29.66220703 7.42359375 30.87714844 7.7690625 32.12890625 8.125 C33.23306885 8.43695313 34.33723145 8.74890625 35.47485352 9.0703125 C38 10 38 10 39 12 C38.43152344 12.25652344 37.86304688 12.51304687 37.27734375 12.77734375 C29.62103087 16.57354563 24.78177578 21.69404185 21.5 29.625 C18.39665377 36.60752902 12.67608094 40.51562111 6.2109375 44.25 C3.45888082 45.18355986 1.76066736 44.77492417 -1 44 C0.485 43.505 0.485 43.505 2 43 C2 42.34 2 41.68 2 41 C3.63631892 39.95107762 5.30485863 38.95093297 7 38 C8.55030118 36.44969882 8.24405099 34.96323999 8.3125 32.8125 C8.25282157 28.09790387 7.03347497 25.68936145 4 22 C3.0925 21.195625 2.185 20.39125 1.25 19.5625 C-2.4029932 15.41646477 -1.45830185 9.36565128 -1.2734375 4.16796875 C-1 1 -1 1 0 0 Z " fill="#F8F5F2" transform="translate(141,154)"/>
<path d="M0 0 C1.15243755 3.45731264 1.16824837 6.23259213 1.1875 9.875 C1.20167969 11.08929688 1.21585937 12.30359375 1.23046875 13.5546875 C1.00226229 16.96618072 0.81146948 19.10372501 -1 22 C-5.42565364 24.15425199 -9.63043899 24.29765378 -14.5 24.3125 C-15.7684375 24.32925781 -17.036875 24.34601562 -18.34375 24.36328125 C-22.29596898 23.97059283 -24.70219868 23.20018973 -28 21 C-29.65476113 17.6681161 -29.13269313 13.59558229 -29.125 9.9375 C-29.12757813 8.70902344 -29.13015625 7.48054688 -29.1328125 6.21484375 C-29 3 -29 3 -28 0 C-19.4000223 -4.29998885 -8.60042969 -4.86024282 0 0 Z " fill="#375879" transform="translate(376,21)"/>
<path d="M0 0 C2.91267957 2.53925911 3.8259126 4.34382442 4.8125 8.0625 C4.98194713 10.71717176 4.86203029 12.50969026 4 15 C3.34 15 2.68 15 2 15 C1.67 15.99 1.34 16.98 1 18 C-2.20792917 19.60396458 -5.51974805 19.47551957 -9 19 C-11.67298737 17.3550847 -12.66006077 16.13077009 -13.5625 13.12890625 C-14.21266777 9.54621092 -14.22339916 7.51381806 -12.75 4.125 C-9.20119478 -0.18426348 -5.35442626 -1.04713578 0 0 Z " fill="#F4F2EF" transform="translate(448,194)"/>
<path d="M0 0 C2.98792748 0.88830276 3.73067527 1.51521549 5.25 4.25 C6.12997745 7.47658397 6.47568512 9.67020417 6 13 C3.5399568 17.28523654 3.5399568 17.28523654 1 19 C-2.17247371 19.79594091 -4.82431009 19.7702233 -8 19 C-10.84510981 16.84881942 -11.74884291 15.33547953 -12.40625 11.83984375 C-12.6895599 7.59727803 -12.35514432 5.5273355 -9.9375 1.9375 C-6.28047721 -0.47457886 -4.3069986 -0.54816346 0 0 Z " fill="#F7F5F1" transform="translate(293,194)"/>
<path d="M0 0 C1.8871875 0.061875 1.8871875 0.061875 3.8125 0.125 C3.8125 0.785 3.8125 1.445 3.8125 2.125 C4.8025 2.455 5.7925 2.785 6.8125 3.125 C8.07487731 5.64975462 7.91106404 7.43700466 7.875 10.25 C7.86597656 11.16007813 7.85695313 12.07015625 7.84765625 13.0078125 C7.83605469 13.70648438 7.82445312 14.40515625 7.8125 15.125 C7.1525 15.125 6.4925 15.125 5.8125 15.125 C5.4825 16.115 5.1525 17.105 4.8125 18.125 C1.60457083 19.72896458 -1.70724805 19.60051957 -5.1875 19.125 C-7.86048737 17.4800847 -8.84756077 16.25577009 -9.75 13.25390625 C-10.40016777 9.67121092 -10.41089916 7.63881806 -8.9375 4.25 C-6.19585815 0.92086346 -4.20553641 -0.13788644 0 0 Z " fill="#F3F2EF" transform="translate(523.1875,193.875)"/>
<path d="M0 0 C11.48701473 -0.37054886 11.48701473 -0.37054886 13.87109375 1.3515625 C15.44479605 3.64949458 15.27946098 5.27525545 15 8 C14.67 8.66 14.34 9.32 14 10 C14.3191623 12.22624593 14.3191623 12.22624593 14.9375 14.625 C15.13214844 15.44226563 15.32679688 16.25953125 15.52734375 17.1015625 C15.68332031 17.72804687 15.83929688 18.35453125 16 19 C14.68 18.67 13.36 18.34 12 18 C11.67 16.02 11.34 14.04 11 12 C8.36 11.67 5.72 11.34 3 11 C3 13.64 3 16.28 3 19 C2.01 18.67 1.02 18.34 0 18 C0 12.06 0 6.12 0 0 Z " fill="#4D6A86" transform="translate(306,194)"/>
<path d="M0 0 C1.32 0 2.64 0 4 0 C4.67031719 1.9570868 5.33614683 3.91571113 6 5.875 C6.556875 7.51082031 6.556875 7.51082031 7.125 9.1796875 C8 12 8 12 8 14 C8.66 14 9.32 14 10 14 C10.18175781 13.11248047 10.18175781 13.11248047 10.3671875 12.20703125 C11.26744643 7.96196415 12.20456621 3.97560339 14 0 C15.32 0 16.64 0 18 0 C18 6.27 18 12.54 18 19 C17.01 18.67 16.02 18.34 15 18 C14.67 15.36 14.34 12.72 14 10 C13.01 12.97 12.02 15.94 11 19 C9.68 18.67 8.36 18.34 7 18 C5.53257498 15.10347822 4.88549685 12.14351383 4 9 C3.67 12.3 3.34 15.6 3 19 C2.01 19 1.02 19 0 19 C0 12.73 0 6.46 0 0 Z " fill="#6C839A" transform="translate(649,194)"/>
<path d="M0 0 C4.62 0 9.24 0 14 0 C14 0.99 14 1.98 14 3 C10.37 3 6.74 3 3 3 C3 4.65 3 6.3 3 8 C6.3 8 9.6 8 13 8 C13 8.99 13 9.98 13 11 C9.7 11 6.4 11 3 11 C3 12.65 3 14.3 3 16 C6.63 16 10.26 16 14 16 C14 16.99 14 17.98 14 19 C11.85423363 19.02685938 9.70837355 19.04633088 7.5625 19.0625 C6.36753906 19.07410156 5.17257812 19.08570313 3.94140625 19.09765625 C1 19 1 19 0 18 C-0.08631874 16.65732587 -0.10706473 15.31025678 -0.09765625 13.96484375 C-0.09443359 13.15595703 -0.09121094 12.34707031 -0.08789062 11.51367188 C-0.07951172 10.66353516 -0.07113281 9.81339844 -0.0625 8.9375 C-0.05798828 8.08349609 -0.05347656 7.22949219 -0.04882812 6.34960938 C-0.03700373 4.23304337 -0.01906769 2.11651315 0 0 Z " fill="#607A92" transform="translate(481,194)"/>
<path d="M0 0 C4.29 0 8.58 0 13 0 C13.33 0.99 13.66 1.98 14 3 C10.37 3 6.74 3 3 3 C3 4.65 3 6.3 3 8 C5.97 8 8.94 8 12 8 C12.33 8.99 12.66 9.98 13 11 C9.7 11 6.4 11 3 11 C3 12.65 3 14.3 3 16 C6.3 16 9.6 16 13 16 C13.33 16.99 13.66 17.98 14 19 C9.38 19 4.76 19 0 19 C0 12.73 0 6.46 0 0 Z " fill="#5E7991" transform="translate(628,194)"/>
<path d="M0 0 C4.29 0 8.58 0 13 0 C13 0.99 13 1.98 13 3 C9.37 3 5.74 3 2 3 C2 4.65 2 6.3 2 8 C5.3 8 8.6 8 12 8 C12.33 8.99 12.66 9.98 13 11 C9.37 11 5.74 11 2 11 C2 12.65 2 14.3 2 16 C5.63 16 9.26 16 13 16 C13.33 16.99 13.66 17.98 14 19 C9.38 19 4.76 19 0 19 C0 12.73 0 6.46 0 0 Z " fill="#5A758E" transform="translate(384,194)"/>
<path d="M0 0 C4 1 4 1 5.921875 3.72265625 C6.52515625 4.82480469 7.1284375 5.92695313 7.75 7.0625 C8.36359375 8.16722656 8.9771875 9.27195313 9.609375 10.41015625 C10.06828125 11.26480469 10.5271875 12.11945313 11 13 C11.33 8.71 11.66 4.42 12 0 C12.99 0.33 13.98 0.66 15 1 C15 6.94 15 12.88 15 19 C13.68 19 12.36 19 11 19 C9.37227202 16.83761684 8.06336197 14.83973003 6.75 12.5 C6.20472656 11.56994141 6.20472656 11.56994141 5.6484375 10.62109375 C4.75239409 9.08838792 3.87444253 7.54513146 3 6 C2.67 10.29 2.34 14.58 2 19 C1.34 19 0.68 19 0 19 C0 12.73 0 6.46 0 0 Z " fill="#40607E" transform="translate(605,194)"/>
<path d="M0 0 C2.98792748 0.88830276 3.73067527 1.51521549 5.25 4.25 C6.12997745 7.47658397 6.47568512 9.67020417 6 13 C3.5399568 17.28523654 3.5399568 17.28523654 1 19 C-2.17247371 19.79594091 -4.82431009 19.7702233 -8 19 C-10.84510981 16.84881942 -11.74884291 15.33547953 -12.40625 11.83984375 C-12.6895599 7.59727803 -12.35514432 5.5273355 -9.9375 1.9375 C-6.28047721 -0.47457886 -4.3069986 -0.54816346 0 0 Z M-7.6640625 3.2109375 C-9.33809913 5.45277602 -9.40275122 6.72487814 -9.375 9.5 C-9.38273437 10.2734375 -9.39046875 11.046875 -9.3984375 11.84375 C-8.90447531 14.51695716 -8.20435068 15.4341509 -6 17 C-0.95434998 16.80862516 -0.95434998 16.80862516 3 14 C3.53967094 8.79912742 3.53967094 8.79912742 1.875 4.0625 C-1.25073031 2.29125282 -4.55183828 0.9461734 -7.6640625 3.2109375 Z " fill="#486683" transform="translate(293,194)"/>
<path d="M0 0 C1.89355469 0.24780273 1.89355469 0.24780273 4 1 C5.00488281 2.76586914 5.00488281 2.76586914 5.703125 5.03515625 C5.9609375 5.84404297 6.21875 6.65292969 6.484375 7.48632812 C6.73703125 8.33646484 6.9896875 9.18660156 7.25 10.0625 C7.518125 10.91650391 7.78625 11.77050781 8.0625 12.65039062 C8.72335648 14.76277116 9.3683379 16.87874196 10 19 C9.01 19 8.02 19 7 19 C6.67 17.35 6.34 15.7 6 14 C3.03 14 0.06 14 -3 14 C-3.33 15.65 -3.66 17.3 -4 19 C-4.66 19 -5.32 19 -6 19 C-4.70024676 12.28460827 -2.70071112 6.27980887 0 0 Z " fill="#55718B" transform="translate(680,194)"/>
<path d="M0 0 C2.91267957 2.53925911 3.8259126 4.34382442 4.8125 8.0625 C4.98194713 10.71717176 4.86203029 12.50969026 4 15 C3.34 15 2.68 15 2 15 C1.67 15.99 1.34 16.98 1 18 C-2.20792917 19.60396458 -5.51974805 19.47551957 -9 19 C-11.67298737 17.3550847 -12.66006077 16.13077009 -13.5625 13.12890625 C-14.21266777 9.54621092 -14.22339916 7.51381806 -12.75 4.125 C-9.20119478 -0.18426348 -5.35442626 -1.04713578 0 0 Z M-11 6 C-11.41973199 10.65698348 -11.41973199 10.65698348 -10 15 C-9.34 15 -8.68 15 -8 15 C-8 15.66 -8 16.32 -8 17 C-4.46322336 17.32152515 -2.6037896 17.4131192 0.375 15.375 C2.49970879 12.26965639 2.60386292 10.6986604 2 7 C0.45664971 4.04952447 0.45664971 4.04952447 -2 2 C-6.38536259 1.01329342 -8.49835208 2.38650856 -11 6 Z " fill="#436280" transform="translate(448,194)"/>
<path d="M0 0 C1.8871875 0.061875 1.8871875 0.061875 3.8125 0.125 C3.8125 0.785 3.8125 1.445 3.8125 2.125 C4.8025 2.455 5.7925 2.785 6.8125 3.125 C8.07487731 5.64975462 7.91106404 7.43700466 7.875 10.25 C7.86597656 11.16007813 7.85695313 12.07015625 7.84765625 13.0078125 C7.83605469 13.70648438 7.82445312 14.40515625 7.8125 15.125 C7.1525 15.125 6.4925 15.125 5.8125 15.125 C5.4825 16.115 5.1525 17.105 4.8125 18.125 C1.60457083 19.72896458 -1.70724805 19.60051957 -5.1875 19.125 C-7.86048737 17.4800847 -8.84756077 16.25577009 -9.75 13.25390625 C-10.40016777 9.67121092 -10.41089916 7.63881806 -8.9375 4.25 C-6.19585815 0.92086346 -4.20553641 -0.13788644 0 0 Z M-7.1875 6.125 C-7.60723199 10.78198348 -7.60723199 10.78198348 -6.1875 15.125 C-5.5275 15.125 -4.8675 15.125 -4.1875 15.125 C-4.1875 15.785 -4.1875 16.445 -4.1875 17.125 C-0.65072336 17.44652515 1.2087104 17.5381192 4.1875 15.5 C6.31220879 12.39465639 6.41636292 10.8236604 5.8125 7.125 C4.26914971 4.17452447 4.26914971 4.17452447 1.8125 2.125 C-2.57286259 1.13829342 -4.68585208 2.51150856 -7.1875 6.125 Z " fill="#446380" transform="translate(523.1875,193.875)"/>
<path d="M0 0 C4.29 0 8.58 0 13 0 C12.67 0.99 12.34 1.98 12 3 C9.03 3 6.06 3 3 3 C3 4.65 3 6.3 3 8 C5.64 8 8.28 8 11 8 C11.33 8.99 11.66 9.98 12 11 C9.03 11 6.06 11 3 11 C3 13.64 3 16.28 3 19 C2.01 19 1.02 19 0 19 C0 12.73 0 6.46 0 0 Z " fill="#5C7790" transform="translate(539,194)"/>
<path d="M0 0 C2.4375 2.5 2.4375 2.5 4 5 C3.01 5.33 2.02 5.66 1 6 C0.34 5.01 -0.32 4.02 -1 3 C-3.3431213 3.25561323 -5.67843403 3.59270772 -8 4 C-9.50934217 7.01868434 -9.17510672 9.67297229 -9 13 C-8.01 14.485 -8.01 14.485 -7 16 C-4.04253508 16.58345476 -4.04253508 16.58345476 -1 16 C0.77409808 14.07977297 0.77409808 14.07977297 2 12 C2.66 12 3.32 12 4 12 C2.92598892 14.91517292 2.22189824 16.77810176 0 19 C-3.03975083 19.49605042 -5.95465518 19.4414353 -9 19 C-11.81754308 16.79879447 -11.98922315 15.04559436 -12.8125 11.5625 C-13.00532427 7.89883888 -12.83134509 6.13944873 -11 3 C-7.72171262 -0.52112348 -4.65484384 -0.66497769 0 0 Z " fill="#466582" transform="translate(582,194)"/>
<path d="M0 0 C0.53778076 0.19110352 1.07556152 0.38220703 1.62963867 0.57910156 C6.91360792 2.45298546 12.20561048 4.30216315 17.50488281 6.13232422 C19.52660565 6.83537735 21.54172733 7.55739373 23.5546875 8.28515625 C32.84571122 11.45858383 42.27042782 12.21916844 52 13 C52 12.34 52 11.68 52 11 C53.98 11 55.96 11 58 11 C57.67 11.66 57.34 12.32 57 13 C45.43145454 16.85618182 31.08212888 14.1341275 20 10 C18.85660156 9.57976562 17.71320313 9.15953125 16.53515625 8.7265625 C13.34167065 7.51940299 10.17033078 6.26644372 7 5 C4.33762767 3.98805758 1.66900956 2.99433689 -1 2 C-0.67 1.34 -0.34 0.68 0 0 Z " fill="#516D89" transform="translate(85,187)"/>
<path d="M0 0 C4.29 0 8.58 0 13 0 C12.67 0.99 12.34 1.98 12 3 C8.7 3 5.4 3 2 3 C2 4.65 2 6.3 2 8 C4.97 8 7.94 8 11 8 C11.33 8.99 11.66 9.98 12 11 C8.7 11 5.4 11 2 11 C2 13.64 2 16.28 2 19 C1.34 19 0.68 19 0 19 C0 12.73 0 6.46 0 0 Z " fill="#55718B" transform="translate(262,194)"/>
<path d="M0 0 C0.66 0 1.32 0 2 0 C2 2.64 2 5.28 2 8 C5.3 8 8.6 8 12 8 C12 5.36 12 2.72 12 0 C12.66 0 13.32 0 14 0 C14 6.27 14 12.54 14 19 C13.34 19 12.68 19 12 19 C12 16.03 12 13.06 12 10 C8.7 10 5.4 10 2 10 C2 12.97 2 15.94 2 19 C1.34 19 0.68 19 0 19 C0 12.73 0 6.46 0 0 Z " fill="#375878" transform="translate(361,194)"/>
<path d="M0 0 C0.99 0 1.98 0 3 0 C4.65 4.62 6.3 9.24 8 14 C10.00993705 10.98509443 10.72623341 8.7850073 11.625 5.3125 C11.88539063 4.31863281 12.14578125 3.32476562 12.4140625 2.30078125 C12.60742188 1.54152344 12.80078125 0.78226563 13 0 C13.99 0 14.98 0 16 0 C14.70024676 6.71539173 12.70071112 12.72019113 10 19 C9.01 19 8.02 19 7 19 C5.83061634 16.02189259 4.66495037 13.04234409 3.5 10.0625 C2.99919922 8.78729492 2.99919922 8.78729492 2.48828125 7.48632812 C2.17246094 6.67744141 1.85664063 5.86855469 1.53125 5.03515625 C1.23798828 4.2862915 0.94472656 3.53742676 0.64257812 2.76586914 C0 1 0 1 0 0 Z " fill="#456481" transform="translate(458,194)"/>
<path d="M0 0 C4.95 0 9.9 0 15 0 C15 0.66 15 1.32 15 2 C13.02 2 11.04 2 9 2 C9 7.61 9 13.22 9 19 C8.01 19 7.02 19 6 19 C6 13.72 6 8.44 6 3 C4.02 3 2.04 3 0 3 C0 2.01 0 1.02 0 0 Z " fill="#57738D" transform="translate(339,194)"/>
<path d="M0 0 C1.32 0 2.64 0 4 0 C4.67220351 1.93558599 5.33758077 3.87354372 6 5.8125 C6.556875 7.43091797 6.556875 7.43091797 7.125 9.08203125 C8 12 8 12 8 15 C7.34 15 6.68 15 6 15 C5.34 13.02 4.68 11.04 4 9 C3.67 12.3 3.34 15.6 3 19 C2.01 19 1.02 19 0 19 C0 12.73 0 6.46 0 0 Z " fill="#4E6B87" transform="translate(649,194)"/>
<path d="M0 0 C1.703125 1.53125 1.703125 1.53125 3 3 C2.41992188 3.01417969 1.83984375 3.02835938 1.2421875 3.04296875 C-4.92391727 3.41944709 -7.55373178 4.77062292 -12 9 C-12.66 9 -13.32 9 -14 9 C-14.226875 9.53625 -14.45375 10.0725 -14.6875 10.625 C-16.43382056 13.78500863 -18.6402849 16.2676983 -21 19 C-21 13.06210331 -16.25355977 7.32290007 -12.22265625 3.16796875 C-8.22532856 0.02267916 -4.9852225 -0.76695731 0 0 Z " fill="#E4E5E6" transform="translate(179,34)"/>
<path d="M0 0 C12.55425674 -1.03342967 12.55425674 -1.03342967 17.375 2.625 C18.60605416 3.72509095 19.81461284 4.85084738 21 6 C22.32885296 7.13028872 23.66199827 8.25555632 25 9.375 C25.99 10.24125 26.98 11.1075 28 12 C24.47642312 12 24.00326883 11.41119396 21.3125 9.3125 C14.88552535 4.81788816 7.46951324 3.0713006 0 1 C0 0.67 0 0.34 0 0 Z " fill="#D6DADD" transform="translate(27,56)"/>
<path d="M0 0 C0.99 0.33 1.98 0.66 3 1 C3 6.94 3 12.88 3 19 C1.68 19 0.36 19 -1 19 C-1.66 17.35 -2.32 15.7 -3 14 C-2.34 14 -1.68 14 -1 14 C-0.67 9.38 -0.34 4.76 0 0 Z " fill="#54708B" transform="translate(617,194)"/>
<path d="M0 0 C1.32 0.33 2.64 0.66 4 1 C4.33 2.32 4.66 3.64 5 5 C4.01 5 3.02 5 2 5 C1.01 7.31 0.02 9.62 -1 12 C0.65 12 2.3 12 4 12 C4 12.33 4 12.66 4 13 C2.576875 13.0928125 2.576875 13.0928125 1.125 13.1875 C0.09375 13.455625 -0.9375 13.72375 -2 14 C-3.45291273 16.46255685 -3.45291273 16.46255685 -4 19 C-4.66 19 -5.32 19 -6 19 C-4.70024676 12.28460827 -2.70071112 6.27980887 0 0 Z " fill="#506D88" transform="translate(680,194)"/>
<path d="M0 0 C6.15234375 -0.09765625 6.15234375 -0.09765625 8 0 C9 1 9 1 9.0625 3.5625 C9.041875 4.366875 9.02125 5.17125 9 6 C6.04335481 7.4783226 3.25770263 7.06032783 0 7 C0 4.69 0 2.38 0 0 Z " fill="#E8E9E8" transform="translate(309,196)"/>
<path d="M0 0 C0.66 0 1.32 0 2 0 C2 5.61 2 11.22 2 17 C5.3 17 8.6 17 12 17 C12 17.66 12 18.32 12 19 C8.04 19 4.08 19 0 19 C0 12.73 0 6.46 0 0 Z " fill="#41617F" transform="translate(417,194)"/>
<path d="M0 0 C0.99 0 1.98 0 3 0 C3 6.27 3 12.54 3 19 C2.01 18.67 1.02 18.34 0 18 C0 12.06 0 6.12 0 0 Z " fill="#57728C" transform="translate(593,194)"/>
<path d="M0 0 C1.32 0 2.64 0 4 0 C4 6.27 4 12.54 4 19 C3.34 19 2.68 19 2 19 C1.67 14.38 1.34 9.76 1 5 C0.01 5.66 -0.98 6.32 -2 7 C-1.34 4.69 -0.68 2.38 0 0 Z " fill="#3F5F7D" transform="translate(663,194)"/>
<path d="M0 0 C2.16874252 0.50603992 3.99967627 0.99983813 6 2 C5.67 4.31 5.34 6.62 5 9 C3.35 9 1.7 9 0 9 C-1.125 2.25 -1.125 2.25 0 0 Z " fill="#E6E7E7" transform="translate(148,125)"/>
<path d="M0 0 C1.32 0.66 2.64 1.32 4 2 C2.13349116 3.47765283 0.26654484 4.84735827 -1.80078125 6.03125 C-7.31272904 9.19928213 -11.05910303 13.03693288 -15 18 C-15 12.92227206 -11.36650632 9.58674505 -8 6 C-5.89511316 4.4405534 -3.80034945 3.12998224 -1.50390625 1.875 C-1.00761719 1.58625 -0.51132813 1.2975 0 1 C0 0.67 0 0.34 0 0 Z " fill="#607A92" transform="translate(179,164)"/>
<path d="M0 0 C0 4.30317542 -2.10955091 5.89586797 -4.921875 8.98828125 C-7.89688678 11.86822687 -11.12516669 14.45849023 -15 16 C-15.99 15.67 -16.98 15.34 -18 15 C-17.33613281 14.55269531 -16.67226562 14.10539063 -15.98828125 13.64453125 C-11.22854406 10.38567469 -6.89888325 7.25332718 -3 3 C-2 2 -1 1 0 0 Z " fill="#56728C" transform="translate(162,182)"/>
<path d="M0 0 C2.125 0.375 2.125 0.375 4 1 C4.625 3.375 4.625 3.375 5 6 C4.34 6.66 3.68 7.32 3 8 C0.875 7.625 0.875 7.625 -1 7 C-1.625 4.625 -1.625 4.625 -2 2 C-1.34 1.34 -0.68 0.68 0 0 Z " fill="#F2F0EE" transform="translate(90,134)"/>
<path d="M0 0 C1.30396729 0.14139404 1.30396729 0.14139404 2.63427734 0.28564453 C4.04580078 0.43066406 4.04580078 0.43066406 5.48583984 0.57861328 C6.96310547 0.74683594 6.96310547 0.74683594 8.47021484 0.91845703 C9.46279297 1.02287109 10.45537109 1.12728516 11.47802734 1.23486328 C13.9349607 1.49473123 16.39036977 1.76465541 18.84521484 2.04345703 C18.84521484 1.38345703 18.84521484 0.72345703 18.84521484 0.04345703 C20.82521484 0.04345703 22.80521484 0.04345703 24.84521484 0.04345703 C24.51521484 0.70345703 24.18521484 1.36345703 23.84521484 2.04345703 C21.02390154 2.9838948 19.27445551 3.17210032 16.35302734 3.17626953 C15.04785156 3.17820313 15.04785156 3.17820313 13.71630859 3.18017578 C12.81009766 3.17630859 11.90388672 3.17244141 10.97021484 3.16845703 C10.07173828 3.17232422 9.17326172 3.17619141 8.24755859 3.18017578 C3.99157033 3.17388924 -0.00867552 3.13636459 -4.15478516 2.04345703 C-2.15478516 0.04345703 -2.15478516 0.04345703 0 0 Z " fill="#5E7891" transform="translate(118.15478515625,197.95654296875)"/>
<path d="M0 0 C3.38012657 1.0490048 4.04612479 2.08270652 5.8125 5.25 C7.04144495 9.13087879 7.03973201 11.12463523 6 15 C3.82492851 12.82492851 3.61357218 12.0285112 3 9.125 C2.32127084 6.15690663 1.49705351 3.67330984 0 1 C0 0.67 0 0.34 0 0 Z " fill="#506D88" transform="translate(446,194)"/>
<path d="M0 0 C0.75 1.6875 0.75 1.6875 1 4 C-0.5 6.75 -0.5 6.75 -3 9 C-6.75 9.3125 -6.75 9.3125 -10 9 C-10 8.34 -10 7.68 -10 7 C-8.906875 6.773125 -7.81375 6.54625 -6.6875 6.3125 C-2.87511789 5.34252805 -2.87511789 5.34252805 -1.0625 2.375 C-0.711875 1.59125 -0.36125 0.8075 0 0 Z " fill="#365778" transform="translate(297,204)"/>
<path d="M0 0 C0.33 0 0.66 0 1 0 C1.33 2.97 1.66 5.94 2 9 C-0.31 10.32 -2.62 11.64 -5 13 C-5 13.66 -5 14.32 -5 15 C-6.65 14.67 -8.3 14.34 -10 14 C-9.01 13.67 -8.02 13.34 -7 13 C-7 12.34 -7 11.68 -7 11 C-5.36368108 9.95107762 -3.69514137 8.95093297 -2 8 C-0.03177114 6.03177114 -0.33751619 2.65191291 0 0 Z " fill="#C3CAD1" transform="translate(150,184)"/>
<path d="M0 0 C0.33 0 0.66 0 1 0 C1.1953125 2.01822917 1.390625 4.03645833 1.5859375 6.0546875 C1.86374749 8.22668245 1.86374749 8.22668245 4 10 C4 10.99 4 11.98 4 13 C1.00675737 11.9024777 0.15389099 11.32317108 -1.25 8.375 C-1.4975 7.59125 -1.745 6.8075 -2 6 C-1.67 6 -1.34 6 -1 6 C-0.67 4.02 -0.34 2.04 0 0 Z " fill="#637C94" transform="translate(283,200)"/>
<path d="M0 0 C0.33 0.99 0.66 1.98 1 3 C2.65 3 4.3 3 6 3 C6 3.33 6 3.66 6 4 C4.576875 4.0928125 4.576875 4.0928125 3.125 4.1875 C2.09375 4.455625 1.0625 4.72375 0 5 C-1.45291273 7.46255685 -1.45291273 7.46255685 -2 10 C-2.66 10 -3.32 10 -4 10 C-3.71872579 8.51882199 -3.42466268 7.04006751 -3.125 5.5625 C-2.96257813 4.73878906 -2.80015625 3.91507813 -2.6328125 3.06640625 C-2.42398438 2.38449219 -2.21515625 1.70257813 -2 1 C-1.34 0.67 -0.68 0.34 0 0 Z " fill="#3C5C7B" transform="translate(678,203)"/>
<path d="M0 0 C1.32 0.66 2.64 1.32 4 2 C1.14693203 4.32472205 -1.54074837 5.7508258 -5 7 C-5 6.01 -5 5.02 -5 4 C-2.5 2.375 -2.5 2.375 0 1 C0 0.67 0 0.34 0 0 Z " fill="#6C839A" transform="translate(179,164)"/>
<path d="M0 0 C0.99 0 1.98 0 3 0 C2.34 2.97 1.68 5.94 1 9 C0.01 8.67 -0.98 8.34 -2 8 C-1.34 5.36 -0.68 2.72 0 0 Z " fill="#536F8A" transform="translate(471,194)"/>
<path d="M0 0 C0.66 0.99 1.32 1.98 2 3 C-0.31 5.64 -2.62 8.28 -5 11 C-5 7.58678765 -4.33132534 6.60527115 -2.5 3.8125 C-2.0359375 3.09707031 -1.571875 2.38164063 -1.09375 1.64453125 C-0.7328125 1.10183594 -0.371875 0.55914062 0 0 Z " fill="#CAD0D5" transform="translate(163,42)"/>
<path d="M0 0 C0.66 0.33 1.32 0.66 2 1 C2.625 4.0625 2.625 4.0625 3 7 C1.35 7 -0.3 7 -2 7 C-1.34 4.69 -0.68 2.38 0 0 Z " fill="#F4F2EF" transform="translate(681,198)"/>
<path d="M0 0 C0.33 2.31 0.66 4.62 1 7 C-0.32 6.67 -1.64 6.34 -3 6 C-3 4.35 -3 2.7 -3 1 C-1 0 -1 0 0 0 Z " fill="#5D7790" transform="translate(321,206)"/>
</svg>
