<?xml version="1.0" encoding="UTF-8"?>
<svg version="1.1" xmlns="http://www.w3.org/2000/svg" width="628" height="533">
<path d="M0 0 C0.79212891 0.16628906 1.58425781 0.33257812 2.40039062 0.50390625 C51.9694141 11.00087593 96.55557151 41.18408451 124.4140625 83.59741211 C145.09301275 115.73955507 155.48995923 152.47980595 155.3125 190.625 C155.31034485 191.46071533 155.3081897 192.29643066 155.30596924 193.1574707 C155.25302576 205.97040333 154.81792103 218.4518877 152 231 C151.81195801 231.85271484 151.62391602 232.70542969 151.43017578 233.58398438 C140.02902609 283.39712209 110.50431225 327.5882191 67.1875 355.125 C46.72995567 367.76406327 24.44182052 376.69461 1 382 C0.21238281 382.17934082 -0.57523438 382.35868164 -1.38671875 382.54345703 C-27.15624826 388.05065487 -57.50234992 387.21132966 -83 381 C-83.89235352 380.78569336 -84.78470703 380.57138672 -85.70410156 380.35058594 C-124.17668058 370.82602313 -161.79877539 350.17843814 -187 319 C-187.83015625 317.99582031 -188.6603125 316.99164063 -189.515625 315.95703125 C-196.46812466 307.42721866 -202.43609403 298.48619836 -208 289 C-208.3515918 288.41202637 -208.70318359 287.82405273 -209.06542969 287.21826172 C-219.24706552 270.03614231 -225.78106791 250.45607621 -230 231 C-230.16226074 230.30277832 -230.32452148 229.60555664 -230.49169922 228.88720703 C-236.27697969 203.1848 -235.19552074 172.45613268 -229 147 C-228.69449219 145.69554932 -228.69449219 145.69554932 -228.3828125 144.36474609 C-219.63813191 107.96231414 -201.26576639 77.26576639 -175 51 C-174.34 50.30519531 -173.68 49.61039063 -173 48.89453125 C-148.34356253 23.22679459 -113.33544788 7.43091691 -79 0 C-78.29746094 -0.16226074 -77.59492188 -0.32452148 -76.87109375 -0.49169922 C-52.93552941 -5.83091695 -23.87226502 -5.40905916 0 0 Z " fill="#010101" transform="translate(374,89)"/>
<path d="M0 0 C0.79212891 0.16628906 1.58425781 0.33257812 2.40039062 0.50390625 C51.9694141 11.00087593 96.55557151 41.18408451 124.4140625 83.59741211 C145.09301275 115.73955507 155.48995923 152.47980595 155.3125 190.625 C155.31034485 191.46071533 155.3081897 192.29643066 155.30596924 193.1574707 C155.25302576 205.97040333 154.81792103 218.4518877 152 231 C151.81195801 231.85271484 151.62391602 232.70542969 151.43017578 233.58398438 C140.02902609 283.39712209 110.50431225 327.5882191 67.1875 355.125 C46.72995567 367.76406327 24.44182052 376.69461 1 382 C0.21238281 382.17934082 -0.57523438 382.35868164 -1.38671875 382.54345703 C-27.15624826 388.05065487 -57.50234992 387.21132966 -83 381 C-83.89235352 380.78569336 -84.78470703 380.57138672 -85.70410156 380.35058594 C-124.17668058 370.82602313 -161.79877539 350.17843814 -187 319 C-187.83015625 317.99582031 -188.6603125 316.99164063 -189.515625 315.95703125 C-196.46812466 307.42721866 -202.43609403 298.48619836 -208 289 C-208.3515918 288.41202637 -208.70318359 287.82405273 -209.06542969 287.21826172 C-219.24706552 270.03614231 -225.78106791 250.45607621 -230 231 C-230.16226074 230.30277832 -230.32452148 229.60555664 -230.49169922 228.88720703 C-236.27697969 203.1848 -235.19552074 172.45613268 -229 147 C-228.69449219 145.69554932 -228.69449219 145.69554932 -228.3828125 144.36474609 C-219.63813191 107.96231414 -201.26576639 77.26576639 -175 51 C-174.34 50.30519531 -173.68 49.61039063 -173 48.89453125 C-148.34356253 23.22679459 -113.33544788 7.43091691 -79 0 C-78.29746094 -0.16226074 -77.59492188 -0.32452148 -76.87109375 -0.49169922 C-52.93552941 -5.83091695 -23.87226502 -5.40905916 0 0 Z M36 69 C34.91196187 70.92327469 33.84652158 72.85965288 32.8125 74.8125 C31.19921875 77.25390625 31.19921875 77.25390625 29 79 C24.10906896 79.63057507 19.66420681 79.14408151 14.81396484 78.41894531 C2.1959567 76.54036628 -10.12322424 75.66083846 -22.875 75.75 C-23.67137878 75.75310181 -24.46775757 75.75620361 -25.28826904 75.75939941 C-51.68933856 75.8790308 -76.33991392 78.47534876 -101.734375 85.78515625 C-105.63854508 86.90852594 -109.56458739 87.92852719 -113.5 88.9375 C-117.65187093 90.02254618 -121.70260382 91.21352383 -125.7578125 92.6171875 C-126.97114258 93.03689819 -126.97114258 93.03689819 -128.20898438 93.46508789 C-129.78471765 94.01777284 -131.35661017 94.58157031 -132.92382812 95.15795898 C-139.87652391 97.60932986 -139.87652391 97.60932986 -144 96 C-145.94023117 94.77603521 -147.83373236 93.47634464 -149.6875 92.125 C-160.34924264 84.84317333 -169.81528851 83.72333989 -182.30859375 86.0300293 C-189.57879425 87.5459669 -195.00419734 89.54820026 -200.62890625 94.609375 C-203.83528587 100.19998563 -201.78976209 107.19307521 -200.3125 113.125 C-200.13243408 113.86145752 -199.95236816 114.59791504 -199.7668457 115.35668945 C-196.61803477 127.83222189 -192.26616471 142.69126587 -183.72265625 152.65625 C-179.52761359 160.79900854 -183.66404019 172.45168739 -185.375 181.0625 C-185.58382812 182.15626953 -185.79265625 183.25003906 -186.0078125 184.37695312 C-187.36848575 191.35040354 -189.0550282 198.16846936 -191 205 C-191.28875 206.11375 -191.5775 207.2275 -191.875 208.375 C-196.9080465 224.59259429 -204.71144944 239.73226515 -214.30761719 253.72436523 C-216.56508306 257.0409279 -216.56508306 257.0409279 -217 261 C-214.61824894 263.06723831 -214.61824894 263.06723831 -211.5625 265.125 C-203.29904472 271.08672873 -194.20595335 277.95112188 -191 288 C-190.62542545 291.0999996 -190.49324081 294.19734295 -190.375 297.31640625 C-190.33632812 298.1520813 -190.29765625 298.98775635 -190.2578125 299.84875488 C-190.16406141 301.89882752 -190.0809647 303.94938258 -190 306 C-189.2646553 305.99555878 -188.52931061 305.99111755 -187.77168274 305.98654175 C-180.78557649 305.94619214 -173.79951172 305.91587853 -166.81332111 305.89637566 C-163.22307103 305.88601145 -159.63291855 305.87198988 -156.04272461 305.84912109 C-152.56730907 305.82712613 -149.09198643 305.81537629 -145.61650658 305.81024551 C-143.66872972 305.80484134 -141.72098938 305.789273 -139.77326965 305.77340698 C-115.8631285 305.77044709 -93.66804896 313.62181948 -71.96875 323.03125 C-69.012442 323.99593998 -67.82513708 324.16329174 -65 323 C-65.96679688 322.61328125 -66.93359375 322.2265625 -67.9296875 321.828125 C-68.55584961 321.57764404 -69.18201172 321.32716309 -69.82714844 321.0690918 C-71.1975463 320.52096533 -72.56798935 319.97295184 -73.93847656 319.42504883 C-76.99909534 318.20130685 -80.0591256 316.9762164 -83.1171875 315.74609375 C-83.98601562 315.39675781 -84.85484375 315.04742187 -85.75 314.6875 C-86.50796875 314.38199219 -87.2659375 314.07648438 -88.046875 313.76171875 C-89.67947538 313.1250046 -91.33755902 312.55414699 -93 312 C-93 309 -93 309 -91.70581055 307.68481445 C-90.80536011 307.03065552 -90.80536011 307.03065552 -89.88671875 306.36328125 C-89.22172363 305.8729541 -88.55672852 305.38262695 -87.87158203 304.87744141 C-86.79046143 304.10279541 -86.79046143 304.10279541 -85.6875 303.3125 C-84.95128418 302.77286621 -84.21506836 302.23323242 -83.45654297 301.67724609 C-81.31152469 300.10798354 -79.15787812 298.55151489 -77 297 C-69.35543891 291.4921819 -61.86494661 285.83022035 -54.45556641 280.01025391 C-42.18733284 270.39577761 -42.18733284 270.39577761 -38 269 C-37.7525 269.63035156 -37.505 270.26070312 -37.25 270.91015625 C-36.23096269 273.4290891 -35.18703301 275.93269416 -34.125 278.43359375 C-33.77953125 279.24763672 -33.4340625 280.06167969 -33.078125 280.90039062 C-32.36078079 282.58848869 -31.6420358 284.27599222 -30.921875 285.96289062 C-29.93079344 288.30191707 -28.96152218 290.6486968 -28 293 C-27.58621094 293.99515625 -27.17242187 294.9903125 -26.74609375 296.015625 C-25.52528077 300.89887693 -25.95358 305.74979737 -26.16601562 310.74804688 C-26.31077749 316.95283985 -25.86526598 323.78572229 -21.546875 328.63012695 C-15.18809884 334.04261072 -8.37262215 333.95577605 -0.37646484 333.37304688 C7.11346642 332.1973108 15.33902644 327.94841097 20.38671875 322.35546875 C23.00670654 318.5301597 23.72839675 315.59059346 23 311 C20.62818247 304.28354475 16.81626909 299.24849222 11.8671875 294.203125 C6.24919109 287.57435936 6.62926529 281.45043352 6.8125 273.125 C6.82603516 271.9596875 6.83957031 270.794375 6.85351562 269.59375 C6.88874179 266.72868882 6.93800285 263.86458623 7 261 C13.87617054 260.58791457 19.30861231 262.04897259 25.8125 264.1875 C27.85196161 264.83358648 29.8923439 265.47677322 31.93359375 266.1171875 C33.45702393 266.59623535 33.45702393 266.59623535 35.01123047 267.08496094 C39.43715857 268.43999921 43.89599438 269.64675618 48.375 270.8125 C49.48645386 271.10386841 49.48645386 271.10386841 50.62036133 271.40112305 C55.03812416 272.54175645 59.46970144 273.55588835 63.93774414 274.48071289 C67.14623483 275.28862809 70.00769938 276.59934864 73 278 C73 278.99 73 279.98 73 281 C95.53400984 274.08908018 116.23497227 263.53656481 127.77587891 242.40966797 C130.01738181 237.99729588 131.92994844 233.475073 133.75 228.875 C134.109729 227.98659424 134.46945801 227.09818848 134.84008789 226.18286133 C136.31885332 222.2174758 137.15623529 219.82785653 136.359375 215.60546875 C135.1926602 213.36926539 134.06005078 211.41134474 132.5 209.4375 C128.8720704 204.82516267 127.8648927 201.22888273 128.08105469 195.32910156 C128.18956272 190.1954662 128.18105879 186.36369674 124.7265625 182.375 C122.11872211 180.51323468 119.46591652 178.80098435 116.72900391 177.13671875 C113.69816609 175.14412049 111.08352737 172.71991642 108.4375 170.25 C107.89681885 169.74637939 107.3561377 169.24275879 106.79907227 168.72387695 C98.3303123 160.66680164 91.16089469 151.57128312 84.55859375 141.94921875 C83.78708984 140.98435547 83.78708984 140.98435547 83 140 C82.34 140 81.68 140 81 140 C81 140.66 81 141.32 81 142 C80.34 142 79.68 142 79 142 C79.25692627 141.34515625 79.51385254 140.6903125 79.77856445 140.015625 C80.95715517 137.01065637 82.13483381 134.00533107 83.3125 131 C83.71662109 129.97003906 84.12074219 128.94007813 84.53710938 127.87890625 C85.69579477 124.92096142 86.84872283 121.96083475 88 119 C88.29366455 118.25403564 88.5873291 117.50807129 88.88989258 116.73950195 C90.61582512 112.27798539 91.94339613 107.82811938 93.0625 103.1875 C93.23168945 102.48955322 93.40087891 101.79160645 93.57519531 101.07250977 C94.05880216 99.05025974 94.53112457 97.02570876 95 95 C95.23074219 94.02546875 95.46148437 93.0509375 95.69921875 92.046875 C98.51696141 78.69756934 98.38062274 62.20330873 92.1875 49.6875 C89.0685722 45.85567441 85.80877084 45.22316004 80.9921875 44.62890625 C62.92830572 44.24408671 47.12187899 55.35140288 36 69 Z " fill="#FDFDFD" transform="translate(374,89)"/>
<path d="M0 0 C5.30394592 15.64852129 7.18579504 31.6263231 7.0625 48.0625 C7.05798828 49.21427734 7.05347656 50.36605469 7.04882812 51.55273438 C7.03714426 54.36854518 7.02076281 57.18424398 7 60 C3.88395423 59.28166176 1.6124529 58.29171486 -1.125 56.625 C-12.57838782 50.23111845 -25.23725219 48.84872174 -37.93359375 52.171875 C-45.67509506 54.44277639 -53.19413805 57.25710825 -60.453125 60.78515625 C-63.31981492 62.15254976 -66.23807738 63.32243201 -69.1875 64.5 C-74.18574426 66.57244274 -78.52878038 68.98068933 -83 72 C-83.92554688 72.57492187 -84.85109375 73.14984375 -85.8046875 73.7421875 C-94.98512296 79.55879928 -107.27572111 88.2316099 -111 99 C-110.63525162 107.78001469 -108.15338555 116.25290516 -106.08398438 124.7578125 C-105.81779297 125.87414062 -105.55160156 126.99046875 -105.27734375 128.140625 C-105.03234131 129.14641602 -104.78733887 130.15220703 -104.53491211 131.18847656 C-104.02434892 133.87202094 -103.89812195 136.27702104 -104 139 C-107.71374696 141.40644141 -111.33848834 141.25818641 -115.609375 141.1953125 C-116.33618469 141.1924826 -117.06299438 141.18965271 -117.81182861 141.18673706 C-120.12472251 141.17557523 -122.43722388 141.15047851 -124.75 141.125 C-126.32160898 141.11496501 -127.89322404 141.10584006 -129.46484375 141.09765625 C-133.31004622 141.07564904 -137.15495664 141.04114715 -141 141 C-141.12262207 140.124646 -141.24524414 139.24929199 -141.37158203 138.34741211 C-141.54028809 137.18991455 -141.70899414 136.03241699 -141.8828125 134.83984375 C-142.04668457 133.69636475 -142.21055664 132.55288574 -142.37939453 131.37475586 C-144.31222321 120.8643346 -149.4597151 113.38634481 -156.95703125 106.015625 C-158.85784651 104.14025086 -160.74128049 102.26532278 -162.5625 100.3125 C-163.05878906 99.79300781 -163.55507812 99.27351563 -164.06640625 98.73828125 C-165.45477825 96.15323715 -164.77467704 94.82464334 -164 92 C-162.82769551 89.38439446 -161.61789307 86.83886211 -160.32421875 84.28515625 C-159.95778763 83.5517955 -159.59135651 82.81843475 -159.21382141 82.06285095 C-158.43912742 80.51579759 -157.66149006 78.97021506 -156.88110352 77.42602539 C-155.69505141 75.07745299 -154.51969085 72.72376269 -153.34570312 70.36914062 C-152.58917388 68.86166172 -151.8320322 67.35448999 -151.07421875 65.84765625 C-150.7261467 65.15060074 -150.37807465 64.45354523 -150.01945496 63.73536682 C-146.47255029 56.74193408 -143.06153151 51.49893246 -136.3125 47.25 C-135.66112061 46.82807373 -135.00974121 46.40614746 -134.33862305 45.97143555 C-127.31534905 41.4684393 -120.11316487 37.26684685 -112.88525391 33.10351562 C-111.28456086 32.16656502 -109.70773416 31.18902826 -108.13671875 30.203125 C-77.73277865 11.28511783 -36.05528456 -1.7764465 0 0 Z " fill="#FCFCFC" transform="translate(330,250)"/>
<path d="M0 0 C1.44052734 0.97839844 1.44052734 0.97839844 2.91015625 1.9765625 C9.86538462 6.73076923 9.86538462 6.73076923 11 9 C11.15969783 10.32914425 11.27289882 11.66409218 11.359375 13 C12.1862877 25.11124076 12.1862877 25.11124076 17.07421875 36.08984375 C18.27407803 38.56550276 17.81425997 39.41324948 17 42 C16.41524642 43.40127853 15.79399529 44.78767138 15.14453125 46.16015625 C14.77191162 46.9493042 14.39929199 47.73845215 14.01538086 48.55151367 C13.61843018 49.38013916 13.22147949 50.20876465 12.8125 51.0625 C12.40974854 51.90852783 12.00699707 52.75455566 11.59204102 53.6262207 C8.59676064 59.87051758 5.44422181 65.98949527 2 72 C1.01 72 0.02 72 -1 72 C-1.12004395 71.4423999 -1.24008789 70.8847998 -1.36376953 70.31030273 C-5.71924781 46.45249307 -5.71924781 46.45249307 -19.16015625 27.36328125 C-35.41031661 17.24063234 -58.19104184 18.77614596 -76.65161133 18.64990234 C-78.43462052 18.63321577 -80.21755952 18.60576266 -82.00024414 18.56787109 C-95.82432778 18.10659163 -95.82432778 18.10659163 -108 24 C-109.485 24.495 -109.485 24.495 -111 25 C-112.12001826 26.82234288 -112.12001826 26.82234288 -113 29 C-114.33333333 31.66666667 -115.66666667 34.33333333 -117 37 C-118.87280273 36.70727539 -118.87280273 36.70727539 -121 36 C-122.54636052 33.48011501 -123.82250128 31.10146643 -125.0625 28.4375 C-125.57006836 27.40012695 -125.57006836 27.40012695 -126.08789062 26.34179688 C-130.57400679 17.03115346 -134.24965403 7.38547032 -135 -3 C-135.07734375 -4.06347656 -135.1546875 -5.12695312 -135.234375 -6.22265625 C-135.28078125 -7.36605469 -135.3271875 -8.50945312 -135.375 -9.6875 C-135.42398437 -10.76386719 -135.47296875 -11.84023438 -135.5234375 -12.94921875 C-134.80291388 -17.14868849 -133.3676686 -18.4356285 -130 -21 C-127.38010888 -22.19220169 -124.72607405 -22.92929891 -121.9375 -23.625 C-120.75329468 -23.93183716 -120.75329468 -23.93183716 -119.54516602 -24.24487305 C-74.90607749 -35.36404024 -37.17279756 -26.18113825 0 0 Z " fill="#FBFBFB" transform="translate(486,269)"/>
<path d="M0 0 C2.52432968 1.06946792 3.92317806 2.14769935 6 4 C6 4.33 6 4.66 6 5 C5.11699219 5.12375 4.23398437 5.2475 3.32421875 5.375 C-12.78606536 8.1436847 -22.4877573 18.3572879 -32.5546875 30.53125 C-33.27011719 31.25828125 -33.27011719 31.25828125 -34 32 C-34.66 32 -35.32 32 -36 32 C-34.25052675 23.04185383 -27.90243671 15.485998 -21.875 8.9375 C-21.37250732 8.389729 -20.87001465 7.84195801 -20.35229492 7.27758789 C-14.02356709 0.61801419 -9.07119376 -1.24662604 0 0 Z " fill="#F0F0F0" transform="translate(444,148)"/>
<path d="M0 0 C2.37864658 1.95050444 4.66768714 3.98684055 6.9375 6.0625 C7.5056543 6.58126709 8.07380859 7.10003418 8.65917969 7.63452148 C11.38382692 10.20336888 13.65155038 12.46350005 15 16 C10.8096335 15.38804054 7.68345958 12.99298669 4.25 10.6875 C-8.05198941 2.64006058 -19.39599476 -0.83361179 -34 -3 C-33.67 -3.99 -33.34 -4.98 -33 -6 C-20.9714601 -9.94038376 -10.2090853 -7.18242867 0 0 Z " fill="#EAEAEA" transform="translate(223,191)"/>
<path d="M0 0 C3.27248936 2.47254751 4.79864772 3.92612115 5.5625 8 C4.84913525 11.80461201 3.96430947 13.49173814 1 16 C-2.5625 16.125 -2.5625 16.125 -6 15 C-8 12.875 -8 12.875 -9 10 C-8.87924634 6.49814374 -8.66503525 4.03080463 -6.75 1.0625 C-4.22274235 -0.47190643 -2.91238053 -0.55473915 0 0 Z " fill="#EDEDED" transform="translate(399,300)"/>
<path d="M0 0 C2.375 1.125 2.375 1.125 4 3 C4.65814325 6.78432369 4.26842446 8.52509519 2.375 11.875 C0 14 0 14 -3.0625 14.5 C-6 14 -6 14 -7.875 13 C-9.68523932 9.78179676 -9.53967465 6.59783102 -9 3 C-6.88807224 -0.75453824 -4.01205827 -0.49127244 0 0 Z " fill="#F2F2F2" transform="translate(302,315)"/>
</svg>
